<!--?xml version="1.0" encoding="UTF-8" standalone="no"?-->


<svg xmlns="http://www.w3.org/2000/svg" width="8.88889in" height="8.88889in" viewBox="0 0 800 800" style="" class="">
  <path id="Imported Path" fill="none" stroke="white" stroke-width="1" d="M 543.93,216.70
           C 553.12,216.11 561.05,223.08 561.64,232.26
             570.47,369.18 474.43,446.72 424.67,468.66
             416.25,472.37 406.41,468.55 402.70,460.13
             398.99,451.71 402.80,441.87 411.23,438.15
             453.04,419.72 536.01,352.72 528.38,234.41
             527.78,225.22 534.75,217.29 543.93,216.70 Z
           M 451.94,488.56
           C 448.22,480.14 452.04,470.30 460.46,466.58
             489.66,453.70 558.05,403.74 583.57,311.61
             586.02,302.74 595.21,297.54 604.08,300.00
             612.95,302.46 618.15,311.64 615.69,320.51
             587.02,424.04 510.43,480.97 473.91,497.08
             465.49,500.80 455.65,496.98 451.94,488.56 Z
           M 466.84,593.97
           C 462.76,602.22 452.77,605.60 444.52,601.52
             321.53,540.71 302.40,418.77 308.28,364.71
             309.27,355.56 317.50,348.95 326.65,349.94
             335.80,350.94 342.41,359.16 341.41,368.31
             336.47,413.74 353.02,519.10 459.29,571.64
             467.54,575.72 470.92,585.72 466.84,593.97 Z
           M 277.41,378.37
           C 286.56,379.36 293.17,387.59 292.18,396.74
             288.73,428.46 297.81,512.68 364.83,580.84
             371.29,587.40 371.20,597.95 364.63,604.41
             358.07,610.86 347.52,610.77 341.07,604.21
             265.74,527.61 254.73,432.82 259.04,393.14
             260.03,383.99 268.25,377.38 277.41,378.37 Z
           M 186.04,342.44
           C 181.01,334.73 183.19,324.40 190.90,319.37
             310.20,241.58 430.51,286.94 476.37,319.78
             483.86,325.14 485.58,335.55 480.22,343.04
             474.86,350.52 464.45,352.24 456.97,346.89
             418.09,319.05 313.12,279.47 209.11,347.30
             201.40,352.32 191.07,350.15 186.04,342.44 Z
           M 480.22,284.67
           C 474.86,292.16 464.45,293.88 456.97,288.53
             429.78,269.07 348.14,233.77 250.62,258.48
             241.70,260.74 232.63,255.34 230.37,246.41
             228.11,237.49 233.51,228.42 242.43,226.16
             351.15,198.62 442.73,237.34 476.37,261.42
             483.85,266.78 485.58,277.19 480.22,284.67 Z" class="BtnAswPq_0"></path>
<style data-made-with="vivus-instant">.BtnAswPq_0{stroke-dasharray:3605 3607;stroke-dashoffset:3606;animation:BtnAswPq_draw 4666ms ease-in 0ms forwards;}@keyframes BtnAswPq_draw{100%{stroke-dashoffset:0;}}@keyframes BtnAswPq_fade{0%{stroke-opacity:1;}96.42857142857143%{stroke-opacity:1;}100%{stroke-opacity:0;}}</style></svg>
