<!--?xml version="1.0" encoding="UTF-8" standalone="no"?-->


<svg xmlns="http://www.w3.org/2000/svg" width="8.88889in" height="8.88889in" viewBox="0 0 800 800" style="">
  <path id="Imported Path" fill="none" stroke="white" stroke-width="1" d="M 700.00,283.33
           C 700.00,283.33 700.00,616.67 700.00,616.67
             700.00,653.49 670.15,683.33 633.33,683.33
             633.33,683.33 166.67,683.33 166.67,683.33
             129.85,683.33 100.00,653.49 100.00,616.67
             100.00,616.67 100.00,283.33 100.00,283.33M 100.00,283.33
           C 100.00,283.33 400.00,116.67 400.00,116.67
             400.00,116.67 700.00,283.33 700.00,283.33M 133.33,300.00
           C 133.33,300.00 400.00,466.67 400.00,466.67
             400.00,466.67 666.67,300.00 666.67,300.00" class="gIWCHlhn_0"></path>
<style data-made-with="vivus-instant">.gIWCHlhn_0{stroke-dasharray:2659 2661;stroke-dashoffset:2660;animation:gIWCHlhn_draw 2000ms ease-in 0ms forwards;}@keyframes gIWCHlhn_draw{100%{stroke-dashoffset:0;}}@keyframes gIWCHlhn_fade{0%{stroke-opacity:1;}94.44444444444444%{stroke-opacity:1;}100%{stroke-opacity:0;}}</style></svg>
