<!--?xml version="1.0" encoding="UTF-8" standalone="no"?-->


<svg xmlns="http://www.w3.org/2000/svg" width="5.55556in" height="5.55556in" viewBox="0 0 500 500" style="">
  <path id="Imported Path" fill="none" stroke="white" stroke-width="1" d="M 0.27,434.90
           C 0.27,434.90 44.40,434.90 44.40,434.90M 263.77,43.29
           C 263.77,43.29 292.58,43.29 292.58,43.29
             299.27,43.29 304.70,48.71 304.70,55.41
             304.70,55.41 304.70,69.12 304.70,69.12
             304.70,69.12 304.70,69.12 304.70,69.12
             304.70,76.33 310.54,82.18 317.76,82.18
             317.76,82.18 350.59,82.18 350.59,82.18M 210.71,405.36
           C 210.71,405.36 210.71,446.31 210.71,446.31
             210.71,452.67 215.86,457.83 222.23,457.83
             222.23,457.83 257.67,457.83 257.67,457.83M 278.08,438.91
           C 288.79,438.91 297.49,447.61 297.49,458.33
             297.49,469.04 288.79,477.74 278.08,477.74
             267.36,477.74 258.67,469.04 258.67,458.33
             258.67,447.61 267.36,438.91 278.08,438.91 Z
           M 166.82,285.35
           C 166.82,285.35 166.82,326.29 166.82,326.29
             166.82,332.65 171.97,337.81 178.34,337.81
             178.34,337.81 213.77,337.81 213.77,337.81M 263.77,338.81
           C 263.77,338.81 263.77,379.75 263.77,379.75
             263.77,386.11 268.93,391.27 275.29,391.27
             275.29,391.27 310.73,391.27 310.73,391.27M 351.59,191.50
           C 351.59,191.50 351.59,232.44 351.59,232.44
             351.59,238.81 356.74,243.96 363.11,243.96
             363.11,243.96 398.55,243.96 398.55,243.96M 254.60,337.81
           C 254.60,337.81 286.98,337.81 286.98,337.81
             293.68,337.81 299.12,332.37 299.12,325.67
             299.12,325.67 299.12,301.05 299.12,301.05
             299.12,301.05 299.12,301.05 299.12,301.05
             299.12,298.00 300.33,295.07 302.49,292.91
             304.65,290.75 307.58,289.53 310.64,289.53
             310.64,289.53 346.08,289.53 346.08,289.53M 100.66,434.91
           C 100.66,434.91 133.04,434.91 133.04,434.91
             139.75,434.91 145.19,429.47 145.19,422.77
             145.19,422.77 145.19,398.15 145.19,398.15
             145.19,398.15 145.19,398.15 145.19,398.15
             145.19,395.10 146.40,392.17 148.56,390.01
             150.72,387.85 153.65,386.64 156.71,386.64
             156.71,386.64 192.15,386.64 192.15,386.64M 212.56,365.54
           C 223.27,365.54 231.97,374.24 231.97,384.95
             231.97,395.67 223.27,404.36 212.56,404.36
             201.84,404.36 193.15,395.67 193.15,384.95
             193.15,374.24 201.84,365.54 212.56,365.54 Z
           M 331.68,191.00
           C 331.68,191.00 364.06,191.00 364.06,191.00
             370.76,191.00 376.20,185.56 376.20,178.86
             376.20,178.86 376.20,154.25 376.20,154.25
             376.20,154.25 376.20,154.25 376.20,154.25
             376.20,151.19 377.41,148.26 379.57,146.10
             381.73,143.94 384.66,142.73 387.72,142.73
             387.72,142.73 423.16,142.73 423.16,142.73M 129.00,94.45
           C 129.00,94.45 129.00,63.61 129.00,63.61
             129.00,58.35 131.08,53.31 134.80,49.60
             138.52,45.88 143.56,43.79 148.82,43.79
             148.82,43.79 223.45,43.79 223.45,43.79M 298.49,457.83
           C 298.49,457.83 320.79,457.54 320.79,457.54
             330.08,457.42 337.54,449.86 337.54,440.57
             337.54,440.57 337.54,440.57 337.54,440.57
             337.54,440.57 337.54,440.57 337.54,440.57
             337.54,425.99 349.36,414.17 363.94,414.17
             363.94,414.17 404.71,414.17 404.71,414.17M 424.62,394.26
           C 435.34,394.26 444.03,402.96 444.03,413.67
             444.03,424.39 435.34,433.08 424.62,433.08
             413.91,433.08 405.21,424.39 405.21,413.67
             405.21,402.96 413.91,394.26 424.62,394.26 Z
           M 143.78,285.35
           C 143.78,285.35 166.08,285.06 166.08,285.06
             175.37,284.94 182.83,277.38 182.83,268.10
             182.83,268.10 182.83,268.10 182.83,268.10
             182.83,268.10 182.83,268.10 182.83,268.10
             182.83,253.51 194.65,241.69 209.23,241.69
             209.23,241.69 250.00,241.69 250.00,241.69M 103.95,94.95
           C 103.95,94.95 129.83,94.95 129.83,94.95
             138.29,94.95 145.14,101.81 145.14,110.26
             145.14,110.26 145.14,164.10 145.14,164.10
             145.14,164.10 145.14,164.10 145.14,164.10
             145.14,178.68 156.96,190.50 171.55,190.50
             171.55,190.50 291.36,190.50 291.36,190.50M 71.59,408.72
           C 86.31,408.72 98.27,420.67 98.27,435.40
             98.27,450.13 86.31,462.08 71.59,462.08
             56.86,462.08 44.90,450.13 44.90,435.40
             44.90,420.67 56.86,408.72 71.59,408.72 Z
           M 115.72,258.17
           C 130.45,258.17 142.40,270.12 142.40,284.85
             142.40,299.57 130.45,311.53 115.72,311.53
             101.00,311.53 89.04,299.57 89.04,284.85
             89.04,270.12 101.00,258.17 115.72,258.17 Z
           M 0.77,285.35
           C 0.77,285.35 88.04,285.35 88.04,285.35M 234.19,318.90
           C 244.90,318.90 253.60,327.59 253.60,338.31
             253.60,349.02 244.90,357.72 234.19,357.72
             223.47,357.72 214.77,349.02 214.77,338.31
             214.77,327.59 223.47,318.90 234.19,318.90 Z
           M 269.91,221.78
           C 280.63,221.78 289.32,230.48 289.32,241.19
             289.32,251.91 280.63,260.60 269.91,260.60
             259.20,260.60 250.50,251.91 250.50,241.19
             250.50,230.48 259.20,221.78 269.91,221.78 Z
           M 311.77,171.59
           C 322.48,171.59 331.18,180.29 331.18,191.00
             331.18,201.72 322.48,210.41 311.77,210.41
             301.05,210.41 292.36,201.72 292.36,191.00
             292.36,180.29 301.05,171.59 311.77,171.59 Z
           M 331.14,372.36
           C 341.85,372.36 350.55,381.06 350.55,391.77
             350.55,402.49 341.85,411.18 331.14,411.18
             320.42,411.18 311.73,402.49 311.73,391.77
             311.73,381.06 320.42,372.36 331.14,372.36 Z
           M 366.49,269.62
           C 377.20,269.62 385.90,278.32 385.90,289.03
             385.90,299.75 377.20,308.45 366.49,308.45
             355.77,308.45 347.08,299.75 347.08,289.03
             347.08,278.32 355.77,269.62 366.49,269.62 Z
           M 418.96,225.05
           C 429.67,225.05 438.37,233.75 438.37,244.46
             438.37,255.18 429.67,263.88 418.96,263.88
             408.24,263.88 399.55,255.18 399.55,244.46
             399.55,233.75 408.24,225.05 418.96,225.05 Z
           M 443.57,121.63
           C 454.29,121.63 462.98,130.33 462.98,141.04
             462.98,151.76 454.29,160.45 443.57,160.45
             432.86,160.45 424.16,151.76 424.16,141.04
             424.16,130.33 432.86,121.63 443.57,121.63 Z
           M 371.00,63.23
           C 381.71,63.23 390.41,71.93 390.41,82.65
             390.41,93.36 381.71,102.06 371.00,102.06
             360.28,102.06 351.59,93.36 351.59,82.65
             351.59,71.93 360.28,63.23 371.00,63.23 Z
           M 243.86,25.10
           C 254.57,25.10 263.27,33.79 263.27,44.51
             263.27,55.22 254.57,63.92 243.86,63.92
             233.14,63.92 224.45,55.22 224.45,44.51
             224.45,33.79 233.14,25.10 243.86,25.10 Z
           M 101.32,161.45
           C 116.04,161.45 128.00,173.41 128.00,188.13
             128.00,202.86 116.04,214.82 101.32,214.82
             86.59,214.82 74.64,202.86 74.64,188.13
             74.64,173.41 86.59,161.45 101.32,161.45 Z
           M 0.27,188.63
           C 0.27,188.63 74.11,188.63 74.11,188.63M 76.77,67.27
           C 91.50,67.27 103.45,79.22 103.45,93.95
             103.45,108.68 91.50,120.63 76.77,120.63
             62.05,120.63 50.09,108.68 50.09,93.95
             50.09,79.22 62.05,67.27 76.77,67.27 Z
           M 0.03,94.45
           C 0.03,94.45 49.09,94.45 49.09,94.45" class="pJfehbwp_0"></path>
<style data-made-with="vivus-instant">.pJfehbwp_0{stroke-dasharray:3934 3936;stroke-dashoffset:3935;animation:pJfehbwp_draw 5333ms ease-in-out 0ms forwards;}@keyframes pJfehbwp_draw{100%{stroke-dashoffset:0;}}@keyframes pJfehbwp_fade{0%{stroke-opacity:1;}96.72131147540983%{stroke-opacity:1;}100%{stroke-opacity:0;}}</style></svg>
