<!--?xml version="1.0" encoding="UTF-8" standalone="no"?-->


<svg xmlns="http://www.w3.org/2000/svg" width="8.88889in" height="8.88889in" viewBox="0 0 800 800" style="">
  <path id="Imported Path" fill="none" stroke="white" stroke-width="1" d="M 140.49,234.96
           C 140.49,234.96 211.77,243.84 211.77,243.84
             234.38,246.63 255.83,233.65 263.97,212.35
             274.25,185.47 288.55,164.26 306.89,148.80
             332.87,126.93 365.18,115.92 403.81,115.92
             443.85,115.92 475.75,126.44 499.43,147.41
             523.10,168.45 534.86,193.61 534.86,223.12
             534.86,244.33 528.20,263.73 514.88,281.33
             506.25,292.51 479.70,316.02 435.38,351.95
             390.99,387.87 361.48,420.26 346.68,449.04
             331.55,478.47 326.29,511.11 324.97,543.83
             323.82,571.86 346.19,595.21 374.30,595.21
             374.30,595.21 414.59,595.21 414.59,595.21
             440.24,595.21 461.45,575.56 463.75,550.08
             465.39,531.74 468.43,517.85 473.04,508.40
             480.77,492.20 500.74,470.83 532.81,444.19
             594.87,392.81 635.32,352.19 654.31,322.27
             673.22,292.43 682.76,260.77 682.76,227.31
             682.76,166.89 657.03,113.86 605.48,68.32
             554.02,22.77 484.63,0.00 397.49,0.00
             314.62,0.00 247.78,22.44 196.81,67.41
             153.40,105.72 127.01,151.10 117.72,203.47
             114.84,218.76 125.28,233.07 140.49,234.96 Z
           M 412.94,647.99
           C 412.94,647.99 374.30,647.99 374.30,647.99
             347.09,647.99 324.97,670.11 324.97,697.32
             324.97,697.32 324.97,750.67 324.97,750.67
             324.97,777.88 347.09,800.00 374.30,800.00
             374.30,800.00 412.94,800.00 412.94,800.00
             440.15,800.00 462.27,777.88 462.27,750.67
             462.27,750.67 462.27,697.32 462.27,697.32
             462.27,670.02 440.15,647.99 412.94,647.99 Z" class="YPBTmBtc_0"></path>
<style data-made-with="vivus-instant">.YPBTmBtc_0{stroke-dasharray:2828 2830;stroke-dashoffset:2829;animation:YPBTmBtc_draw 3333ms ease-in-out 0ms forwards;}@keyframes YPBTmBtc_draw{100%{stroke-dashoffset:0;}}@keyframes YPBTmBtc_fade{0%{stroke-opacity:1;}95.65217391304348%{stroke-opacity:1;}100%{stroke-opacity:0;}}</style></svg>
